M48
; DRILL file {KiCad 8.0.5} date 2025-03-10T17:56:10-0700
; FORMAT={-:-/ absolute / metric / decimal}
; #@! TF.CreationDate,2025-03-10T17:56:10-07:00
; #@! TF.GenerationSoftware,Kicad,Pcbnew,8.0.5
; #@! TF.FileFunction,Plated,1,4,PTH
FMAT,2
METRIC
; #@! TA.AperFunction,Plated,PTH,ViaDrill
T1C0.300
; #@! TA.AperFunction,Plated,PTH,ComponentDrill
T2C0.800
; #@! TA.AperFunction,Plated,PTH,ComponentDrill
T3C0.900
; #@! TA.AperFunction,Plated,PTH,ComponentDrill
T4C0.950
; #@! TA.AperFunction,Plated,PTH,ComponentDrill
T5C1.000
; #@! TA.AperFunction,Plated,PTH,ComponentDrill
T6C1.090
; #@! TA.AperFunction,Plated,PTH,ComponentDrill
T7C1.100
; #@! TA.AperFunction,Plated,PTH,ComponentDrill
T8C2.200
%
G90
G05
T1
X78.75Y-113.75
X81.25Y-114.158
X82.0Y-112.75
X82.0Y-113.75
X87.5Y-113.75
X87.5Y-114.983
X89.225Y-115.5
X89.749Y-113.413
X90.009Y-115.34
X90.5Y-110.183
X91.0Y-117.0
X91.9Y-112.967
X98.0Y-111.0
X99.85Y-90.25
X102.0Y-87.75
X104.5Y-70.75
X107.75Y-111.0
X116.5Y-108.5
X129.5Y-105.25
X130.715Y-75.75
X131.5Y-98.5
X131.715Y-74.965
X132.75Y-105.25
X133.95Y-85.25
X134.0Y-120.5
X138.25Y-84.5
T2
X53.055Y-91.413
X53.055Y-93.953
X65.295Y-87.501
X65.295Y-89.501
X65.295Y-91.501
X67.295Y-87.501
X67.295Y-89.501
X67.295Y-91.501
T3
X118.5Y-77.75
X122.5Y-77.75
T4
X63.985Y-64.145
X66.485Y-64.145
T5
X61.75Y-74.0
X67.25Y-70.75
X87.0Y-62.17
X87.0Y-64.71
X87.0Y-67.25
X91.5Y-66.0
X95.75Y-62.21
X95.75Y-64.75
X95.75Y-67.29
T6
X52.33Y-105.0
X52.345Y-80.383
X54.87Y-105.0
X54.885Y-80.383
X57.41Y-105.0
X57.425Y-80.383
X59.95Y-105.0
X59.965Y-80.383
X62.49Y-105.0
X62.505Y-80.383
X65.03Y-105.0
X65.045Y-80.383
X67.57Y-105.0
X67.585Y-80.383
X70.11Y-105.0
X70.125Y-80.383
X72.65Y-105.0
X72.665Y-80.383
X75.19Y-105.0
X75.205Y-80.383
X77.73Y-105.0
X77.745Y-80.383
X80.27Y-105.0
X80.285Y-80.383
X82.81Y-105.0
X82.825Y-80.383
X85.35Y-105.0
X85.365Y-80.383
X87.89Y-105.0
X87.905Y-80.383
X90.43Y-105.0
X90.445Y-80.383
X92.97Y-105.0
X92.985Y-80.383
X95.51Y-105.0
X95.525Y-80.383
X98.05Y-105.0
X98.065Y-80.383
X100.59Y-105.0
X100.605Y-80.383
X103.13Y-105.0
X103.145Y-80.383
X105.67Y-105.0
X105.685Y-80.383
X108.21Y-105.0
X108.225Y-80.383
X110.75Y-105.0
X110.765Y-80.383
T7
X52.325Y-85.063
X52.325Y-100.303
X54.865Y-85.063
X54.865Y-87.603
X54.865Y-100.303
X57.405Y-85.063
X57.405Y-100.303
X58.624Y-97.252
X59.945Y-85.063
X59.945Y-100.303
X61.164Y-97.252
X62.485Y-85.063
X62.485Y-100.303
X63.704Y-97.252
X65.025Y-85.063
X65.025Y-100.303
X66.244Y-97.252
X67.565Y-85.063
X67.565Y-100.303
X68.784Y-97.252
X70.105Y-85.063
X70.105Y-100.303
X72.645Y-85.063
X72.645Y-100.303
X75.185Y-85.063
X75.185Y-100.303
X77.725Y-85.063
X77.725Y-100.303
X80.265Y-85.063
X80.265Y-100.303
X82.805Y-85.063
X82.805Y-100.303
X85.345Y-85.063
X85.345Y-100.303
X87.885Y-85.063
X87.885Y-100.303
X90.425Y-85.063
X90.425Y-100.303
X92.965Y-85.063
X92.965Y-100.303
X95.505Y-85.063
X95.505Y-100.303
X98.045Y-85.063
X98.045Y-87.603
X98.045Y-90.143
X98.045Y-92.683
X98.045Y-95.223
X98.045Y-97.763
X98.045Y-100.303
X100.585Y-85.063
X100.585Y-100.303
X103.125Y-85.063
X103.125Y-100.303
X105.665Y-85.063
X105.665Y-100.303
X108.205Y-85.063
X108.205Y-100.303
X110.745Y-85.063
X110.745Y-100.303
X112.96Y-64.0
X115.5Y-64.0
X121.73Y-64.0
X124.27Y-64.0
T8
X53.75Y-63.75
X53.75Y-121.25
X144.75Y-63.75
X144.75Y-121.0
M30
