%TF.GenerationSoftware,KiCad,Pcbnew,8.0.5*%
%TF.CreationDate,2025-03-10T17:56:19-07:00*%
%TF.ProjectId,flightcomputerv1,666c6967-6874-4636-9f6d-707574657276,rev?*%
%TF.SameCoordinates,Original*%
%TF.FileFunction,Drillmap*%
%TF.FilePolarity,Positive*%
%FSLAX45Y45*%
G04 Gerber Fmt 4.5, Leading zero omitted, Abs format (unit mm)*
G04 Created by KiCad (PCBNEW 8.0.5) date 2025-03-10 17:56:19*
%MOMM*%
%LPD*%
G01*
G04 APERTURE LIST*
%ADD10C,0.050000*%
%ADD11C,0.200000*%
%ADD12C,0.125000*%
G04 APERTURE END LIST*
D10*
X4950000Y-5975000D02*
X14950000Y-5975000D01*
X14950000Y-12525000D01*
X4950000Y-12525000D01*
X4950000Y-5975000D01*
D11*
D12*
X6175959Y-6512043D02*
X6300959Y-6637043D01*
X6300959Y-6512043D02*
X6175959Y-6637043D01*
D11*
X5208277Y-12838984D02*
X5208277Y-12638984D01*
X5208277Y-12638984D02*
X5255896Y-12638984D01*
X5255896Y-12638984D02*
X5284467Y-12648508D01*
X5284467Y-12648508D02*
X5303515Y-12667555D01*
X5303515Y-12667555D02*
X5313039Y-12686603D01*
X5313039Y-12686603D02*
X5322563Y-12724698D01*
X5322563Y-12724698D02*
X5322563Y-12753269D01*
X5322563Y-12753269D02*
X5313039Y-12791365D01*
X5313039Y-12791365D02*
X5303515Y-12810412D01*
X5303515Y-12810412D02*
X5284467Y-12829460D01*
X5284467Y-12829460D02*
X5255896Y-12838984D01*
X5255896Y-12838984D02*
X5208277Y-12838984D01*
X5408277Y-12838984D02*
X5408277Y-12705650D01*
X5408277Y-12743746D02*
X5417801Y-12724698D01*
X5417801Y-12724698D02*
X5427324Y-12715174D01*
X5427324Y-12715174D02*
X5446372Y-12705650D01*
X5446372Y-12705650D02*
X5465420Y-12705650D01*
X5532086Y-12838984D02*
X5532086Y-12705650D01*
X5532086Y-12638984D02*
X5522563Y-12648508D01*
X5522563Y-12648508D02*
X5532086Y-12658031D01*
X5532086Y-12658031D02*
X5541610Y-12648508D01*
X5541610Y-12648508D02*
X5532086Y-12638984D01*
X5532086Y-12638984D02*
X5532086Y-12658031D01*
X5655896Y-12838984D02*
X5636848Y-12829460D01*
X5636848Y-12829460D02*
X5627324Y-12810412D01*
X5627324Y-12810412D02*
X5627324Y-12638984D01*
X5760658Y-12838984D02*
X5741610Y-12829460D01*
X5741610Y-12829460D02*
X5732086Y-12810412D01*
X5732086Y-12810412D02*
X5732086Y-12638984D01*
X5989229Y-12838984D02*
X5989229Y-12638984D01*
X5989229Y-12638984D02*
X6055896Y-12781841D01*
X6055896Y-12781841D02*
X6122562Y-12638984D01*
X6122562Y-12638984D02*
X6122562Y-12838984D01*
X6303515Y-12838984D02*
X6303515Y-12734222D01*
X6303515Y-12734222D02*
X6293991Y-12715174D01*
X6293991Y-12715174D02*
X6274943Y-12705650D01*
X6274943Y-12705650D02*
X6236848Y-12705650D01*
X6236848Y-12705650D02*
X6217801Y-12715174D01*
X6303515Y-12829460D02*
X6284467Y-12838984D01*
X6284467Y-12838984D02*
X6236848Y-12838984D01*
X6236848Y-12838984D02*
X6217801Y-12829460D01*
X6217801Y-12829460D02*
X6208277Y-12810412D01*
X6208277Y-12810412D02*
X6208277Y-12791365D01*
X6208277Y-12791365D02*
X6217801Y-12772317D01*
X6217801Y-12772317D02*
X6236848Y-12762793D01*
X6236848Y-12762793D02*
X6284467Y-12762793D01*
X6284467Y-12762793D02*
X6303515Y-12753269D01*
X6398753Y-12705650D02*
X6398753Y-12905650D01*
X6398753Y-12715174D02*
X6417801Y-12705650D01*
X6417801Y-12705650D02*
X6455896Y-12705650D01*
X6455896Y-12705650D02*
X6474943Y-12715174D01*
X6474943Y-12715174D02*
X6484467Y-12724698D01*
X6484467Y-12724698D02*
X6493991Y-12743746D01*
X6493991Y-12743746D02*
X6493991Y-12800888D01*
X6493991Y-12800888D02*
X6484467Y-12819936D01*
X6484467Y-12819936D02*
X6474943Y-12829460D01*
X6474943Y-12829460D02*
X6455896Y-12838984D01*
X6455896Y-12838984D02*
X6417801Y-12838984D01*
X6417801Y-12838984D02*
X6398753Y-12829460D01*
X6579705Y-12819936D02*
X6589229Y-12829460D01*
X6589229Y-12829460D02*
X6579705Y-12838984D01*
X6579705Y-12838984D02*
X6570182Y-12829460D01*
X6570182Y-12829460D02*
X6579705Y-12819936D01*
X6579705Y-12819936D02*
X6579705Y-12838984D01*
X6579705Y-12715174D02*
X6589229Y-12724698D01*
X6589229Y-12724698D02*
X6579705Y-12734222D01*
X6579705Y-12734222D02*
X6570182Y-12724698D01*
X6570182Y-12724698D02*
X6579705Y-12715174D01*
X6579705Y-12715174D02*
X6579705Y-12734222D01*
D12*
X4822500Y-13105000D02*
X4947500Y-13230000D01*
X4947500Y-13105000D02*
X4822500Y-13230000D01*
D11*
X5313039Y-13258984D02*
X5198753Y-13258984D01*
X5255896Y-13258984D02*
X5255896Y-13058984D01*
X5255896Y-13058984D02*
X5236848Y-13087555D01*
X5236848Y-13087555D02*
X5217801Y-13106603D01*
X5217801Y-13106603D02*
X5198753Y-13116127D01*
X5398753Y-13239936D02*
X5408277Y-13249460D01*
X5408277Y-13249460D02*
X5398753Y-13258984D01*
X5398753Y-13258984D02*
X5389229Y-13249460D01*
X5389229Y-13249460D02*
X5398753Y-13239936D01*
X5398753Y-13239936D02*
X5398753Y-13258984D01*
X5484467Y-13078031D02*
X5493991Y-13068508D01*
X5493991Y-13068508D02*
X5513039Y-13058984D01*
X5513039Y-13058984D02*
X5560658Y-13058984D01*
X5560658Y-13058984D02*
X5579705Y-13068508D01*
X5579705Y-13068508D02*
X5589229Y-13078031D01*
X5589229Y-13078031D02*
X5598753Y-13097079D01*
X5598753Y-13097079D02*
X5598753Y-13116127D01*
X5598753Y-13116127D02*
X5589229Y-13144698D01*
X5589229Y-13144698D02*
X5474944Y-13258984D01*
X5474944Y-13258984D02*
X5598753Y-13258984D01*
X5779705Y-13058984D02*
X5684467Y-13058984D01*
X5684467Y-13058984D02*
X5674943Y-13154222D01*
X5674943Y-13154222D02*
X5684467Y-13144698D01*
X5684467Y-13144698D02*
X5703515Y-13135174D01*
X5703515Y-13135174D02*
X5751134Y-13135174D01*
X5751134Y-13135174D02*
X5770182Y-13144698D01*
X5770182Y-13144698D02*
X5779705Y-13154222D01*
X5779705Y-13154222D02*
X5789229Y-13173269D01*
X5789229Y-13173269D02*
X5789229Y-13220888D01*
X5789229Y-13220888D02*
X5779705Y-13239936D01*
X5779705Y-13239936D02*
X5770182Y-13249460D01*
X5770182Y-13249460D02*
X5751134Y-13258984D01*
X5751134Y-13258984D02*
X5703515Y-13258984D01*
X5703515Y-13258984D02*
X5684467Y-13249460D01*
X5684467Y-13249460D02*
X5674943Y-13239936D01*
X5913039Y-13058984D02*
X5932086Y-13058984D01*
X5932086Y-13058984D02*
X5951134Y-13068508D01*
X5951134Y-13068508D02*
X5960658Y-13078031D01*
X5960658Y-13078031D02*
X5970182Y-13097079D01*
X5970182Y-13097079D02*
X5979705Y-13135174D01*
X5979705Y-13135174D02*
X5979705Y-13182793D01*
X5979705Y-13182793D02*
X5970182Y-13220888D01*
X5970182Y-13220888D02*
X5960658Y-13239936D01*
X5960658Y-13239936D02*
X5951134Y-13249460D01*
X5951134Y-13249460D02*
X5932086Y-13258984D01*
X5932086Y-13258984D02*
X5913039Y-13258984D01*
X5913039Y-13258984D02*
X5893991Y-13249460D01*
X5893991Y-13249460D02*
X5884467Y-13239936D01*
X5884467Y-13239936D02*
X5874943Y-13220888D01*
X5874943Y-13220888D02*
X5865420Y-13182793D01*
X5865420Y-13182793D02*
X5865420Y-13135174D01*
X5865420Y-13135174D02*
X5874943Y-13097079D01*
X5874943Y-13097079D02*
X5884467Y-13078031D01*
X5884467Y-13078031D02*
X5893991Y-13068508D01*
X5893991Y-13068508D02*
X5913039Y-13058984D01*
X6065420Y-13258984D02*
X6065420Y-13125650D01*
X6065420Y-13144698D02*
X6074943Y-13135174D01*
X6074943Y-13135174D02*
X6093991Y-13125650D01*
X6093991Y-13125650D02*
X6122563Y-13125650D01*
X6122563Y-13125650D02*
X6141610Y-13135174D01*
X6141610Y-13135174D02*
X6151134Y-13154222D01*
X6151134Y-13154222D02*
X6151134Y-13258984D01*
X6151134Y-13154222D02*
X6160658Y-13135174D01*
X6160658Y-13135174D02*
X6179705Y-13125650D01*
X6179705Y-13125650D02*
X6208277Y-13125650D01*
X6208277Y-13125650D02*
X6227324Y-13135174D01*
X6227324Y-13135174D02*
X6236848Y-13154222D01*
X6236848Y-13154222D02*
X6236848Y-13258984D01*
X6332086Y-13258984D02*
X6332086Y-13125650D01*
X6332086Y-13144698D02*
X6341610Y-13135174D01*
X6341610Y-13135174D02*
X6360658Y-13125650D01*
X6360658Y-13125650D02*
X6389229Y-13125650D01*
X6389229Y-13125650D02*
X6408277Y-13135174D01*
X6408277Y-13135174D02*
X6417801Y-13154222D01*
X6417801Y-13154222D02*
X6417801Y-13258984D01*
X6417801Y-13154222D02*
X6427324Y-13135174D01*
X6427324Y-13135174D02*
X6446372Y-13125650D01*
X6446372Y-13125650D02*
X6474943Y-13125650D01*
X6474943Y-13125650D02*
X6493991Y-13135174D01*
X6493991Y-13135174D02*
X6503515Y-13154222D01*
X6503515Y-13154222D02*
X6503515Y-13258984D01*
X6893991Y-13049460D02*
X6722563Y-13306603D01*
X7151134Y-13058984D02*
X7170182Y-13058984D01*
X7170182Y-13058984D02*
X7189229Y-13068508D01*
X7189229Y-13068508D02*
X7198753Y-13078031D01*
X7198753Y-13078031D02*
X7208277Y-13097079D01*
X7208277Y-13097079D02*
X7217801Y-13135174D01*
X7217801Y-13135174D02*
X7217801Y-13182793D01*
X7217801Y-13182793D02*
X7208277Y-13220888D01*
X7208277Y-13220888D02*
X7198753Y-13239936D01*
X7198753Y-13239936D02*
X7189229Y-13249460D01*
X7189229Y-13249460D02*
X7170182Y-13258984D01*
X7170182Y-13258984D02*
X7151134Y-13258984D01*
X7151134Y-13258984D02*
X7132086Y-13249460D01*
X7132086Y-13249460D02*
X7122563Y-13239936D01*
X7122563Y-13239936D02*
X7113039Y-13220888D01*
X7113039Y-13220888D02*
X7103515Y-13182793D01*
X7103515Y-13182793D02*
X7103515Y-13135174D01*
X7103515Y-13135174D02*
X7113039Y-13097079D01*
X7113039Y-13097079D02*
X7122563Y-13078031D01*
X7122563Y-13078031D02*
X7132086Y-13068508D01*
X7132086Y-13068508D02*
X7151134Y-13058984D01*
X7303515Y-13239936D02*
X7313039Y-13249460D01*
X7313039Y-13249460D02*
X7303515Y-13258984D01*
X7303515Y-13258984D02*
X7293991Y-13249460D01*
X7293991Y-13249460D02*
X7303515Y-13239936D01*
X7303515Y-13239936D02*
X7303515Y-13258984D01*
X7436848Y-13058984D02*
X7455896Y-13058984D01*
X7455896Y-13058984D02*
X7474944Y-13068508D01*
X7474944Y-13068508D02*
X7484467Y-13078031D01*
X7484467Y-13078031D02*
X7493991Y-13097079D01*
X7493991Y-13097079D02*
X7503515Y-13135174D01*
X7503515Y-13135174D02*
X7503515Y-13182793D01*
X7503515Y-13182793D02*
X7493991Y-13220888D01*
X7493991Y-13220888D02*
X7484467Y-13239936D01*
X7484467Y-13239936D02*
X7474944Y-13249460D01*
X7474944Y-13249460D02*
X7455896Y-13258984D01*
X7455896Y-13258984D02*
X7436848Y-13258984D01*
X7436848Y-13258984D02*
X7417801Y-13249460D01*
X7417801Y-13249460D02*
X7408277Y-13239936D01*
X7408277Y-13239936D02*
X7398753Y-13220888D01*
X7398753Y-13220888D02*
X7389229Y-13182793D01*
X7389229Y-13182793D02*
X7389229Y-13135174D01*
X7389229Y-13135174D02*
X7398753Y-13097079D01*
X7398753Y-13097079D02*
X7408277Y-13078031D01*
X7408277Y-13078031D02*
X7417801Y-13068508D01*
X7417801Y-13068508D02*
X7436848Y-13058984D01*
X7674944Y-13125650D02*
X7674944Y-13258984D01*
X7627325Y-13049460D02*
X7579706Y-13192317D01*
X7579706Y-13192317D02*
X7703515Y-13192317D01*
X7789229Y-13258984D02*
X7827325Y-13258984D01*
X7827325Y-13258984D02*
X7846372Y-13249460D01*
X7846372Y-13249460D02*
X7855896Y-13239936D01*
X7855896Y-13239936D02*
X7874944Y-13211365D01*
X7874944Y-13211365D02*
X7884467Y-13173269D01*
X7884467Y-13173269D02*
X7884467Y-13097079D01*
X7884467Y-13097079D02*
X7874944Y-13078031D01*
X7874944Y-13078031D02*
X7865420Y-13068508D01*
X7865420Y-13068508D02*
X7846372Y-13058984D01*
X7846372Y-13058984D02*
X7808277Y-13058984D01*
X7808277Y-13058984D02*
X7789229Y-13068508D01*
X7789229Y-13068508D02*
X7779706Y-13078031D01*
X7779706Y-13078031D02*
X7770182Y-13097079D01*
X7770182Y-13097079D02*
X7770182Y-13144698D01*
X7770182Y-13144698D02*
X7779706Y-13163746D01*
X7779706Y-13163746D02*
X7789229Y-13173269D01*
X7789229Y-13173269D02*
X7808277Y-13182793D01*
X7808277Y-13182793D02*
X7846372Y-13182793D01*
X7846372Y-13182793D02*
X7865420Y-13173269D01*
X7865420Y-13173269D02*
X7874944Y-13163746D01*
X7874944Y-13163746D02*
X7884467Y-13144698D01*
X7960658Y-13078031D02*
X7970182Y-13068508D01*
X7970182Y-13068508D02*
X7989229Y-13058984D01*
X7989229Y-13058984D02*
X8036848Y-13058984D01*
X8036848Y-13058984D02*
X8055896Y-13068508D01*
X8055896Y-13068508D02*
X8065420Y-13078031D01*
X8065420Y-13078031D02*
X8074944Y-13097079D01*
X8074944Y-13097079D02*
X8074944Y-13116127D01*
X8074944Y-13116127D02*
X8065420Y-13144698D01*
X8065420Y-13144698D02*
X7951134Y-13258984D01*
X7951134Y-13258984D02*
X8074944Y-13258984D01*
X8151134Y-13058984D02*
X8151134Y-13097079D01*
X8227325Y-13058984D02*
X8227325Y-13097079D01*
X8522563Y-13335174D02*
X8513039Y-13325650D01*
X8513039Y-13325650D02*
X8493991Y-13297079D01*
X8493991Y-13297079D02*
X8484468Y-13278031D01*
X8484468Y-13278031D02*
X8474944Y-13249460D01*
X8474944Y-13249460D02*
X8465420Y-13201841D01*
X8465420Y-13201841D02*
X8465420Y-13163746D01*
X8465420Y-13163746D02*
X8474944Y-13116127D01*
X8474944Y-13116127D02*
X8484468Y-13087555D01*
X8484468Y-13087555D02*
X8493991Y-13068508D01*
X8493991Y-13068508D02*
X8513039Y-13039936D01*
X8513039Y-13039936D02*
X8522563Y-13030412D01*
X8703515Y-13258984D02*
X8589230Y-13258984D01*
X8646372Y-13258984D02*
X8646372Y-13058984D01*
X8646372Y-13058984D02*
X8627325Y-13087555D01*
X8627325Y-13087555D02*
X8608277Y-13106603D01*
X8608277Y-13106603D02*
X8589230Y-13116127D01*
X8941611Y-13258984D02*
X8941611Y-13058984D01*
X9027325Y-13258984D02*
X9027325Y-13154222D01*
X9027325Y-13154222D02*
X9017801Y-13135174D01*
X9017801Y-13135174D02*
X8998753Y-13125650D01*
X8998753Y-13125650D02*
X8970182Y-13125650D01*
X8970182Y-13125650D02*
X8951134Y-13135174D01*
X8951134Y-13135174D02*
X8941611Y-13144698D01*
X9151134Y-13258984D02*
X9132087Y-13249460D01*
X9132087Y-13249460D02*
X9122563Y-13239936D01*
X9122563Y-13239936D02*
X9113039Y-13220888D01*
X9113039Y-13220888D02*
X9113039Y-13163746D01*
X9113039Y-13163746D02*
X9122563Y-13144698D01*
X9122563Y-13144698D02*
X9132087Y-13135174D01*
X9132087Y-13135174D02*
X9151134Y-13125650D01*
X9151134Y-13125650D02*
X9179706Y-13125650D01*
X9179706Y-13125650D02*
X9198753Y-13135174D01*
X9198753Y-13135174D02*
X9208277Y-13144698D01*
X9208277Y-13144698D02*
X9217801Y-13163746D01*
X9217801Y-13163746D02*
X9217801Y-13220888D01*
X9217801Y-13220888D02*
X9208277Y-13239936D01*
X9208277Y-13239936D02*
X9198753Y-13249460D01*
X9198753Y-13249460D02*
X9179706Y-13258984D01*
X9179706Y-13258984D02*
X9151134Y-13258984D01*
X9332087Y-13258984D02*
X9313039Y-13249460D01*
X9313039Y-13249460D02*
X9303515Y-13230412D01*
X9303515Y-13230412D02*
X9303515Y-13058984D01*
X9484468Y-13249460D02*
X9465420Y-13258984D01*
X9465420Y-13258984D02*
X9427325Y-13258984D01*
X9427325Y-13258984D02*
X9408277Y-13249460D01*
X9408277Y-13249460D02*
X9398753Y-13230412D01*
X9398753Y-13230412D02*
X9398753Y-13154222D01*
X9398753Y-13154222D02*
X9408277Y-13135174D01*
X9408277Y-13135174D02*
X9427325Y-13125650D01*
X9427325Y-13125650D02*
X9465420Y-13125650D01*
X9465420Y-13125650D02*
X9484468Y-13135174D01*
X9484468Y-13135174D02*
X9493992Y-13154222D01*
X9493992Y-13154222D02*
X9493992Y-13173269D01*
X9493992Y-13173269D02*
X9398753Y-13192317D01*
X9560658Y-13335174D02*
X9570182Y-13325650D01*
X9570182Y-13325650D02*
X9589230Y-13297079D01*
X9589230Y-13297079D02*
X9598753Y-13278031D01*
X9598753Y-13278031D02*
X9608277Y-13249460D01*
X9608277Y-13249460D02*
X9617801Y-13201841D01*
X9617801Y-13201841D02*
X9617801Y-13163746D01*
X9617801Y-13163746D02*
X9608277Y-13116127D01*
X9608277Y-13116127D02*
X9598753Y-13087555D01*
X9598753Y-13087555D02*
X9589230Y-13068508D01*
X9589230Y-13068508D02*
X9570182Y-13039936D01*
X9570182Y-13039936D02*
X9560658Y-13030412D01*
X9922563Y-13335174D02*
X9913039Y-13325650D01*
X9913039Y-13325650D02*
X9893992Y-13297079D01*
X9893992Y-13297079D02*
X9884468Y-13278031D01*
X9884468Y-13278031D02*
X9874944Y-13249460D01*
X9874944Y-13249460D02*
X9865420Y-13201841D01*
X9865420Y-13201841D02*
X9865420Y-13163746D01*
X9865420Y-13163746D02*
X9874944Y-13116127D01*
X9874944Y-13116127D02*
X9884468Y-13087555D01*
X9884468Y-13087555D02*
X9893992Y-13068508D01*
X9893992Y-13068508D02*
X9913039Y-13039936D01*
X9913039Y-13039936D02*
X9922563Y-13030412D01*
X9998753Y-13125650D02*
X9998753Y-13258984D01*
X9998753Y-13144698D02*
X10008277Y-13135174D01*
X10008277Y-13135174D02*
X10027325Y-13125650D01*
X10027325Y-13125650D02*
X10055896Y-13125650D01*
X10055896Y-13125650D02*
X10074944Y-13135174D01*
X10074944Y-13135174D02*
X10084468Y-13154222D01*
X10084468Y-13154222D02*
X10084468Y-13258984D01*
X10208277Y-13258984D02*
X10189230Y-13249460D01*
X10189230Y-13249460D02*
X10179706Y-13239936D01*
X10179706Y-13239936D02*
X10170182Y-13220888D01*
X10170182Y-13220888D02*
X10170182Y-13163746D01*
X10170182Y-13163746D02*
X10179706Y-13144698D01*
X10179706Y-13144698D02*
X10189230Y-13135174D01*
X10189230Y-13135174D02*
X10208277Y-13125650D01*
X10208277Y-13125650D02*
X10236849Y-13125650D01*
X10236849Y-13125650D02*
X10255896Y-13135174D01*
X10255896Y-13135174D02*
X10265420Y-13144698D01*
X10265420Y-13144698D02*
X10274944Y-13163746D01*
X10274944Y-13163746D02*
X10274944Y-13220888D01*
X10274944Y-13220888D02*
X10265420Y-13239936D01*
X10265420Y-13239936D02*
X10255896Y-13249460D01*
X10255896Y-13249460D02*
X10236849Y-13258984D01*
X10236849Y-13258984D02*
X10208277Y-13258984D01*
X10332087Y-13125650D02*
X10408277Y-13125650D01*
X10360658Y-13058984D02*
X10360658Y-13230412D01*
X10360658Y-13230412D02*
X10370182Y-13249460D01*
X10370182Y-13249460D02*
X10389230Y-13258984D01*
X10389230Y-13258984D02*
X10408277Y-13258984D01*
X10627325Y-13125650D02*
X10627325Y-13325650D01*
X10627325Y-13135174D02*
X10646373Y-13125650D01*
X10646373Y-13125650D02*
X10684468Y-13125650D01*
X10684468Y-13125650D02*
X10703515Y-13135174D01*
X10703515Y-13135174D02*
X10713039Y-13144698D01*
X10713039Y-13144698D02*
X10722563Y-13163746D01*
X10722563Y-13163746D02*
X10722563Y-13220888D01*
X10722563Y-13220888D02*
X10713039Y-13239936D01*
X10713039Y-13239936D02*
X10703515Y-13249460D01*
X10703515Y-13249460D02*
X10684468Y-13258984D01*
X10684468Y-13258984D02*
X10646373Y-13258984D01*
X10646373Y-13258984D02*
X10627325Y-13249460D01*
X10836849Y-13258984D02*
X10817801Y-13249460D01*
X10817801Y-13249460D02*
X10808277Y-13230412D01*
X10808277Y-13230412D02*
X10808277Y-13058984D01*
X10998754Y-13258984D02*
X10998754Y-13154222D01*
X10998754Y-13154222D02*
X10989230Y-13135174D01*
X10989230Y-13135174D02*
X10970182Y-13125650D01*
X10970182Y-13125650D02*
X10932087Y-13125650D01*
X10932087Y-13125650D02*
X10913039Y-13135174D01*
X10998754Y-13249460D02*
X10979706Y-13258984D01*
X10979706Y-13258984D02*
X10932087Y-13258984D01*
X10932087Y-13258984D02*
X10913039Y-13249460D01*
X10913039Y-13249460D02*
X10903515Y-13230412D01*
X10903515Y-13230412D02*
X10903515Y-13211365D01*
X10903515Y-13211365D02*
X10913039Y-13192317D01*
X10913039Y-13192317D02*
X10932087Y-13182793D01*
X10932087Y-13182793D02*
X10979706Y-13182793D01*
X10979706Y-13182793D02*
X10998754Y-13173269D01*
X11065420Y-13125650D02*
X11141611Y-13125650D01*
X11093992Y-13058984D02*
X11093992Y-13230412D01*
X11093992Y-13230412D02*
X11103515Y-13249460D01*
X11103515Y-13249460D02*
X11122563Y-13258984D01*
X11122563Y-13258984D02*
X11141611Y-13258984D01*
X11284468Y-13249460D02*
X11265420Y-13258984D01*
X11265420Y-13258984D02*
X11227325Y-13258984D01*
X11227325Y-13258984D02*
X11208277Y-13249460D01*
X11208277Y-13249460D02*
X11198753Y-13230412D01*
X11198753Y-13230412D02*
X11198753Y-13154222D01*
X11198753Y-13154222D02*
X11208277Y-13135174D01*
X11208277Y-13135174D02*
X11227325Y-13125650D01*
X11227325Y-13125650D02*
X11265420Y-13125650D01*
X11265420Y-13125650D02*
X11284468Y-13135174D01*
X11284468Y-13135174D02*
X11293992Y-13154222D01*
X11293992Y-13154222D02*
X11293992Y-13173269D01*
X11293992Y-13173269D02*
X11198753Y-13192317D01*
X11465420Y-13258984D02*
X11465420Y-13058984D01*
X11465420Y-13249460D02*
X11446373Y-13258984D01*
X11446373Y-13258984D02*
X11408277Y-13258984D01*
X11408277Y-13258984D02*
X11389230Y-13249460D01*
X11389230Y-13249460D02*
X11379706Y-13239936D01*
X11379706Y-13239936D02*
X11370182Y-13220888D01*
X11370182Y-13220888D02*
X11370182Y-13163746D01*
X11370182Y-13163746D02*
X11379706Y-13144698D01*
X11379706Y-13144698D02*
X11389230Y-13135174D01*
X11389230Y-13135174D02*
X11408277Y-13125650D01*
X11408277Y-13125650D02*
X11446373Y-13125650D01*
X11446373Y-13125650D02*
X11465420Y-13135174D01*
X11541611Y-13335174D02*
X11551134Y-13325650D01*
X11551134Y-13325650D02*
X11570182Y-13297079D01*
X11570182Y-13297079D02*
X11579706Y-13278031D01*
X11579706Y-13278031D02*
X11589230Y-13249460D01*
X11589230Y-13249460D02*
X11598753Y-13201841D01*
X11598753Y-13201841D02*
X11598753Y-13163746D01*
X11598753Y-13163746D02*
X11589230Y-13116127D01*
X11589230Y-13116127D02*
X11579706Y-13087555D01*
X11579706Y-13087555D02*
X11570182Y-13068508D01*
X11570182Y-13068508D02*
X11551134Y-13039936D01*
X11551134Y-13039936D02*
X11541611Y-13030412D01*
M02*
