G04 #@! TF.GenerationSoftware,KiCad,Pcbnew,8.0.5*
G04 #@! TF.CreationDate,2025-03-10T17:55:26-07:00*
G04 #@! TF.ProjectId,flightcomputerv1,666c6967-6874-4636-9f6d-707574657276,rev?*
G04 #@! TF.SameCoordinates,Original*
G04 #@! TF.FileFunction,Legend,Bot*
G04 #@! TF.FilePolarity,Positive*
%FSLAX46Y46*%
G04 Gerber Fmt 4.6, Leading zero omitted, Abs format (unit mm)*
G04 Created by KiCad (PCBNEW 8.0.5) date 2025-03-10 17:55:26*
%MOMM*%
%LPD*%
G01*
G04 APERTURE LIST*
G04 Aperture macros list*
%AMRoundRect*
0 Rectangle with rounded corners*
0 $1 Rounding radius*
0 $2 $3 $4 $5 $6 $7 $8 $9 X,Y pos of 4 corners*
0 Add a 4 corners polygon primitive as box body*
4,1,4,$2,$3,$4,$5,$6,$7,$8,$9,$2,$3,0*
0 Add four circle primitives for the rounded corners*
1,1,$1+$1,$2,$3*
1,1,$1+$1,$4,$5*
1,1,$1+$1,$6,$7*
1,1,$1+$1,$8,$9*
0 Add four rect primitives between the rounded corners*
20,1,$1+$1,$2,$3,$4,$5,0*
20,1,$1+$1,$4,$5,$6,$7,0*
20,1,$1+$1,$6,$7,$8,$9,0*
20,1,$1+$1,$8,$9,$2,$3,0*%
G04 Aperture macros list end*
%ADD10R,1.700000X1.700000*%
%ADD11O,1.700000X1.700000*%
%ADD12C,2.100000*%
%ADD13R,2.100000X2.100000*%
%ADD14C,3.800000*%
%ADD15R,1.600000X1.600000*%
%ADD16C,1.600000*%
%ADD17R,1.300000X1.300000*%
%ADD18C,1.300000*%
%ADD19RoundRect,0.250000X0.620000X0.620000X-0.620000X0.620000X-0.620000X-0.620000X0.620000X-0.620000X0*%
%ADD20C,1.740000*%
%ADD21C,1.250000*%
%ADD22RoundRect,0.250000X-0.600000X-0.725000X0.600000X-0.725000X0.600000X0.725000X-0.600000X0.725000X0*%
%ADD23O,1.700000X1.950000*%
%ADD24RoundRect,0.250000X-0.620000X-0.620000X0.620000X-0.620000X0.620000X0.620000X-0.620000X0.620000X0*%
G04 APERTURE END LIST*
%LPC*%
D10*
X91500000Y-66000000D03*
X61750000Y-74000000D03*
X67250000Y-70750000D03*
X95750000Y-67290000D03*
D11*
X95750000Y-64750000D03*
X95750000Y-62210000D03*
D10*
X87000000Y-67250000D03*
D11*
X87000000Y-64710000D03*
X87000000Y-62170000D03*
D12*
X115500000Y-64000000D03*
D13*
X112960000Y-64000000D03*
D14*
X144750000Y-121000000D03*
D15*
X118500000Y-77750000D03*
D16*
X122500000Y-77750000D03*
D14*
X53750000Y-63750000D03*
D15*
X52324590Y-100302931D03*
D16*
X54864590Y-100302931D03*
X57404590Y-100302931D03*
X59944590Y-100302931D03*
X62484590Y-100302931D03*
X65024590Y-100302931D03*
X67564590Y-100302931D03*
X70104590Y-100302931D03*
X72644590Y-100302931D03*
X75184590Y-100302931D03*
X77724590Y-100302931D03*
X80264590Y-100302931D03*
X82804590Y-100302931D03*
X85344590Y-100302931D03*
X87884590Y-100302931D03*
X90424590Y-100302931D03*
X92964590Y-100302931D03*
X95504590Y-100302931D03*
X98044590Y-100302931D03*
X100584590Y-100302931D03*
X103124590Y-100302931D03*
X105664590Y-100302931D03*
X108204590Y-100302931D03*
X110744590Y-100302931D03*
X110744590Y-85062931D03*
X108204590Y-85062931D03*
X105664590Y-85062931D03*
X103124590Y-85062931D03*
X100584590Y-85062931D03*
X98044590Y-85062931D03*
X95504590Y-85062931D03*
X92964590Y-85062931D03*
X90424590Y-85062931D03*
X87884590Y-85062931D03*
X85344590Y-85062931D03*
X82804590Y-85062931D03*
X80264590Y-85062931D03*
X77724590Y-85062931D03*
X75184590Y-85062931D03*
X72644590Y-85062931D03*
X70104590Y-85062931D03*
X67564590Y-85062931D03*
X65024590Y-85062931D03*
X62484590Y-85062931D03*
X59944590Y-85062931D03*
X57404590Y-85062931D03*
X54864590Y-85062931D03*
X52324590Y-85062931D03*
X54864590Y-87602931D03*
X98044590Y-97762931D03*
X98044590Y-95222931D03*
X98044590Y-92682931D03*
X98044590Y-90142931D03*
X98044590Y-87602931D03*
D15*
X58623790Y-97252131D03*
D16*
X61163790Y-97252131D03*
X63703790Y-97252131D03*
X66243790Y-97252131D03*
X68783790Y-97252131D03*
D17*
X65294590Y-87501331D03*
D18*
X65294590Y-89501331D03*
X65294590Y-91501331D03*
X67294590Y-91501331D03*
X67294590Y-89501331D03*
X67294590Y-87501331D03*
X53054590Y-91412931D03*
X53054590Y-93952931D03*
D19*
X110764590Y-80382931D03*
D20*
X108224590Y-80382931D03*
X105684590Y-80382931D03*
X103144590Y-80382931D03*
X100604590Y-80382931D03*
X98064590Y-80382931D03*
X95524590Y-80382931D03*
X92984590Y-80382931D03*
X90444590Y-80382931D03*
X87904590Y-80382931D03*
X85364590Y-80382931D03*
X82824590Y-80382931D03*
X80284590Y-80382931D03*
X77744590Y-80382931D03*
X75204590Y-80382931D03*
X72664590Y-80382931D03*
X70124590Y-80382931D03*
X67584590Y-80382931D03*
X65044590Y-80382931D03*
X62504590Y-80382931D03*
X59964590Y-80382931D03*
X57424590Y-80382931D03*
X54884590Y-80382931D03*
X52344590Y-80382931D03*
D14*
X144750000Y-63750000D03*
D21*
X62384590Y-65745431D03*
D22*
X63984590Y-64145431D03*
D23*
X66484590Y-64145431D03*
D14*
X53750000Y-121250000D03*
D13*
X124270000Y-64000000D03*
D12*
X121730000Y-64000000D03*
D24*
X52330000Y-105000000D03*
D20*
X54870000Y-105000000D03*
X57410000Y-105000000D03*
X59950000Y-105000000D03*
X62490000Y-105000000D03*
X65030000Y-105000000D03*
X67570000Y-105000000D03*
X70110000Y-105000000D03*
X72650000Y-105000000D03*
X75190000Y-105000000D03*
X77730000Y-105000000D03*
X80270000Y-105000000D03*
X82810000Y-105000000D03*
X85350000Y-105000000D03*
X87890000Y-105000000D03*
X90430000Y-105000000D03*
X92970000Y-105000000D03*
X95510000Y-105000000D03*
X98050000Y-105000000D03*
X100590000Y-105000000D03*
X103130000Y-105000000D03*
X105670000Y-105000000D03*
X108210000Y-105000000D03*
X110750000Y-105000000D03*
%LPD*%
M02*
