G04 #@! TF.GenerationSoftware,KiCad,Pcbnew,8.0.5*
G04 #@! TF.CreationDate,2025-03-10T17:55:26-07:00*
G04 #@! TF.ProjectId,flightcomputerv1,666c6967-6874-4636-9f6d-707574657276,rev?*
G04 #@! TF.SameCoordinates,Original*
G04 #@! TF.FileFunction,Copper,L4,Bot*
G04 #@! TF.FilePolarity,Positive*
%FSLAX46Y46*%
G04 Gerber Fmt 4.6, Leading zero omitted, Abs format (unit mm)*
G04 Created by KiCad (PCBNEW 8.0.5) date 2025-03-10 17:55:26*
%MOMM*%
%LPD*%
G01*
G04 APERTURE LIST*
G04 Aperture macros list*
%AMRoundRect*
0 Rectangle with rounded corners*
0 $1 Rounding radius*
0 $2 $3 $4 $5 $6 $7 $8 $9 X,Y pos of 4 corners*
0 Add a 4 corners polygon primitive as box body*
4,1,4,$2,$3,$4,$5,$6,$7,$8,$9,$2,$3,0*
0 Add four circle primitives for the rounded corners*
1,1,$1+$1,$2,$3*
1,1,$1+$1,$4,$5*
1,1,$1+$1,$6,$7*
1,1,$1+$1,$8,$9*
0 Add four rect primitives between the rounded corners*
20,1,$1+$1,$2,$3,$4,$5,0*
20,1,$1+$1,$4,$5,$6,$7,0*
20,1,$1+$1,$6,$7,$8,$9,0*
20,1,$1+$1,$8,$9,$2,$3,0*%
G04 Aperture macros list end*
G04 #@! TA.AperFunction,ComponentPad*
%ADD10R,1.700000X1.700000*%
G04 #@! TD*
G04 #@! TA.AperFunction,ComponentPad*
%ADD11O,1.700000X1.700000*%
G04 #@! TD*
G04 #@! TA.AperFunction,ComponentPad*
%ADD12C,2.100000*%
G04 #@! TD*
G04 #@! TA.AperFunction,ComponentPad*
%ADD13R,2.100000X2.100000*%
G04 #@! TD*
G04 #@! TA.AperFunction,ComponentPad*
%ADD14C,3.800000*%
G04 #@! TD*
G04 #@! TA.AperFunction,ComponentPad*
%ADD15R,1.600000X1.600000*%
G04 #@! TD*
G04 #@! TA.AperFunction,ComponentPad*
%ADD16C,1.600000*%
G04 #@! TD*
G04 #@! TA.AperFunction,ComponentPad*
%ADD17R,1.300000X1.300000*%
G04 #@! TD*
G04 #@! TA.AperFunction,ComponentPad*
%ADD18C,1.300000*%
G04 #@! TD*
G04 #@! TA.AperFunction,ComponentPad*
%ADD19RoundRect,0.250000X0.620000X0.620000X-0.620000X0.620000X-0.620000X-0.620000X0.620000X-0.620000X0*%
G04 #@! TD*
G04 #@! TA.AperFunction,ComponentPad*
%ADD20C,1.740000*%
G04 #@! TD*
G04 #@! TA.AperFunction,ComponentPad*
%ADD21RoundRect,0.250000X-0.600000X-0.725000X0.600000X-0.725000X0.600000X0.725000X-0.600000X0.725000X0*%
G04 #@! TD*
G04 #@! TA.AperFunction,ComponentPad*
%ADD22O,1.700000X1.950000*%
G04 #@! TD*
G04 #@! TA.AperFunction,ComponentPad*
%ADD23RoundRect,0.250000X-0.620000X-0.620000X0.620000X-0.620000X0.620000X0.620000X-0.620000X0.620000X0*%
G04 #@! TD*
G04 #@! TA.AperFunction,ViaPad*
%ADD24C,0.600000*%
G04 #@! TD*
G04 #@! TA.AperFunction,Conductor*
%ADD25C,0.200000*%
G04 #@! TD*
G04 #@! TA.AperFunction,Conductor*
%ADD26C,0.500000*%
G04 #@! TD*
G04 APERTURE END LIST*
D10*
X91500000Y-66000000D03*
X61750000Y-74000000D03*
X67250000Y-70750000D03*
X95750000Y-67290000D03*
D11*
X95750000Y-64750000D03*
X95750000Y-62210000D03*
D10*
X87000000Y-67250000D03*
D11*
X87000000Y-64710000D03*
X87000000Y-62170000D03*
D12*
X115500000Y-64000000D03*
D13*
X112960000Y-64000000D03*
D14*
X144750000Y-121000000D03*
D15*
X118500000Y-77750000D03*
D16*
X122500000Y-77750000D03*
D14*
X53750000Y-63750000D03*
D15*
X52324590Y-100302931D03*
D16*
X54864590Y-100302931D03*
X57404590Y-100302931D03*
X59944590Y-100302931D03*
X62484590Y-100302931D03*
X65024590Y-100302931D03*
X67564590Y-100302931D03*
X70104590Y-100302931D03*
X72644590Y-100302931D03*
X75184590Y-100302931D03*
X77724590Y-100302931D03*
X80264590Y-100302931D03*
X82804590Y-100302931D03*
X85344590Y-100302931D03*
X87884590Y-100302931D03*
X90424590Y-100302931D03*
X92964590Y-100302931D03*
X95504590Y-100302931D03*
X98044590Y-100302931D03*
X100584590Y-100302931D03*
X103124590Y-100302931D03*
X105664590Y-100302931D03*
X108204590Y-100302931D03*
X110744590Y-100302931D03*
X110744590Y-85062931D03*
X108204590Y-85062931D03*
X105664590Y-85062931D03*
X103124590Y-85062931D03*
X100584590Y-85062931D03*
X98044590Y-85062931D03*
X95504590Y-85062931D03*
X92964590Y-85062931D03*
X90424590Y-85062931D03*
X87884590Y-85062931D03*
X85344590Y-85062931D03*
X82804590Y-85062931D03*
X80264590Y-85062931D03*
X77724590Y-85062931D03*
X75184590Y-85062931D03*
X72644590Y-85062931D03*
X70104590Y-85062931D03*
X67564590Y-85062931D03*
X65024590Y-85062931D03*
X62484590Y-85062931D03*
X59944590Y-85062931D03*
X57404590Y-85062931D03*
X54864590Y-85062931D03*
X52324590Y-85062931D03*
X54864590Y-87602931D03*
X98044590Y-97762931D03*
X98044590Y-95222931D03*
X98044590Y-92682931D03*
X98044590Y-90142931D03*
X98044590Y-87602931D03*
D15*
X58623790Y-97252131D03*
D16*
X61163790Y-97252131D03*
X63703790Y-97252131D03*
X66243790Y-97252131D03*
X68783790Y-97252131D03*
D17*
X65294590Y-87501331D03*
D18*
X65294590Y-89501331D03*
X65294590Y-91501331D03*
X67294590Y-91501331D03*
X67294590Y-89501331D03*
X67294590Y-87501331D03*
X53054590Y-91412931D03*
X53054590Y-93952931D03*
D19*
X110764590Y-80382931D03*
D20*
X108224590Y-80382931D03*
X105684590Y-80382931D03*
X103144590Y-80382931D03*
X100604590Y-80382931D03*
X98064590Y-80382931D03*
X95524590Y-80382931D03*
X92984590Y-80382931D03*
X90444590Y-80382931D03*
X87904590Y-80382931D03*
X85364590Y-80382931D03*
X82824590Y-80382931D03*
X80284590Y-80382931D03*
X77744590Y-80382931D03*
X75204590Y-80382931D03*
X72664590Y-80382931D03*
X70124590Y-80382931D03*
X67584590Y-80382931D03*
X65044590Y-80382931D03*
X62504590Y-80382931D03*
X59964590Y-80382931D03*
X57424590Y-80382931D03*
X54884590Y-80382931D03*
X52344590Y-80382931D03*
D14*
X144750000Y-63750000D03*
D21*
X63984590Y-64145431D03*
D22*
X66484590Y-64145431D03*
D14*
X53750000Y-121250000D03*
D13*
X124270000Y-64000000D03*
D12*
X121730000Y-64000000D03*
D23*
X52330000Y-105000000D03*
D20*
X54870000Y-105000000D03*
X57410000Y-105000000D03*
X59950000Y-105000000D03*
X62490000Y-105000000D03*
X65030000Y-105000000D03*
X67570000Y-105000000D03*
X70110000Y-105000000D03*
X72650000Y-105000000D03*
X75190000Y-105000000D03*
X77730000Y-105000000D03*
X80270000Y-105000000D03*
X82810000Y-105000000D03*
X85350000Y-105000000D03*
X87890000Y-105000000D03*
X90430000Y-105000000D03*
X92970000Y-105000000D03*
X95510000Y-105000000D03*
X98050000Y-105000000D03*
X100590000Y-105000000D03*
X103130000Y-105000000D03*
X105670000Y-105000000D03*
X108210000Y-105000000D03*
X110750000Y-105000000D03*
D24*
X89225045Y-115500001D03*
X131500000Y-98500000D03*
X107750000Y-111000000D03*
X102000000Y-87750000D03*
X98000000Y-111000000D03*
X99850000Y-90250000D03*
X104500000Y-70750000D03*
X81250000Y-114157931D03*
X91000000Y-117000000D03*
X90500000Y-110182931D03*
X87500000Y-114982931D03*
X87500000Y-113750000D03*
X78750000Y-113750000D03*
X82000000Y-112750000D03*
X82000000Y-113750000D03*
X138250000Y-84500000D03*
X91899786Y-112966786D03*
X90008983Y-115340487D03*
X134000000Y-120500000D03*
X133950000Y-85250000D03*
X131715410Y-74965410D03*
X130715410Y-75750000D03*
X116500000Y-108500000D03*
X132750000Y-105250000D03*
X129500000Y-105250000D03*
X89749497Y-113412931D03*
D25*
X98000000Y-111000000D02*
X101760000Y-107240000D01*
X101760000Y-107240000D02*
X101760000Y-92160000D01*
X101760000Y-92160000D02*
X99850000Y-90250000D01*
X104300000Y-107550000D02*
X107750000Y-111000000D01*
X102000000Y-87750000D02*
X104300000Y-90050000D01*
X104300000Y-90050000D02*
X104300000Y-107550000D01*
D26*
X82824590Y-80382931D02*
X95750000Y-67457521D01*
X95750000Y-67457521D02*
X95750000Y-67290000D01*
X80284590Y-80382931D02*
X80284590Y-74715410D01*
X80284590Y-74715410D02*
X87000000Y-68000000D01*
X87000000Y-68000000D02*
X87000000Y-67250000D01*
D25*
X94250000Y-88857521D02*
X98044590Y-85062931D01*
X94250000Y-109760957D02*
X94250000Y-88857521D01*
X81250000Y-114157931D02*
X81442069Y-114350000D01*
X81442069Y-114350000D02*
X89660957Y-114350000D01*
X89660957Y-114350000D02*
X94250000Y-109760957D01*
X138250000Y-84500000D02*
X134048529Y-84500000D01*
X134048529Y-84500000D02*
X132398529Y-82850000D01*
X132398529Y-82850000D02*
X70051659Y-82850000D01*
X70051659Y-82850000D02*
X67584590Y-80382931D01*
X131715410Y-74965410D02*
X130651471Y-74965410D01*
X123566881Y-82050000D02*
X74331659Y-82050000D01*
X130651471Y-74965410D02*
X123566881Y-82050000D01*
X74331659Y-82050000D02*
X72664590Y-80382931D01*
X130715410Y-75750000D02*
X124015410Y-82450000D01*
X72191659Y-82450000D02*
X70124590Y-80382931D01*
X124015410Y-82450000D02*
X72191659Y-82450000D01*
X133950000Y-85250000D02*
X133700000Y-85500000D01*
X133700000Y-85500000D02*
X113250000Y-85500000D01*
X113250000Y-85500000D02*
X111000000Y-83250000D01*
X67911659Y-83250000D02*
X65044590Y-80382931D01*
X111000000Y-83250000D02*
X67911659Y-83250000D01*
X90008983Y-115340487D02*
X90409513Y-115340487D01*
X90409513Y-115340487D02*
X99250000Y-106500000D01*
X99250000Y-106500000D02*
X99250000Y-88937521D01*
X99250000Y-88937521D02*
X103124590Y-85062931D01*
X96880000Y-107986572D02*
X96880000Y-87211886D01*
X96880000Y-87211886D02*
X97841886Y-86250000D01*
X99397521Y-86250000D02*
X100584590Y-85062931D01*
X91899786Y-112966786D02*
X96880000Y-107986572D01*
X97841886Y-86250000D02*
X99397521Y-86250000D01*
X89749497Y-113412931D02*
X84180000Y-107843434D01*
X84180000Y-107843434D02*
X84180000Y-86227521D01*
X84180000Y-86227521D02*
X85344590Y-85062931D01*
D26*
X70370000Y-120500000D02*
X54870000Y-105000000D01*
X134000000Y-120500000D02*
X70370000Y-120500000D01*
X116500000Y-108500000D02*
X108750000Y-116250000D01*
X108750000Y-116250000D02*
X68660000Y-116250000D01*
X68660000Y-116250000D02*
X57410000Y-105000000D01*
X129500000Y-105250000D02*
X113750000Y-89500000D01*
X113750000Y-89500000D02*
X110000000Y-89500000D01*
X110000000Y-89500000D02*
X105664590Y-85164590D01*
X105664590Y-85164590D02*
X105664590Y-85062931D01*
X132750000Y-105250000D02*
X115750000Y-88250000D01*
X115750000Y-88250000D02*
X111391659Y-88250000D01*
X111391659Y-88250000D02*
X108204590Y-85062931D01*
M02*
